# Blender v2.83.0 OBJ File: ''
# www.blender.org
mtllib default_piece.mtl
o Cylinder
v 0.000000 -0.250000 -1.000000
v 0.000000 0.250000 -0.893767
v 0.707107 -0.250000 -0.707107
v 0.631989 0.250000 -0.631989
v 1.000000 -0.250000 0.000000
v 0.893767 0.250000 0.000000
v 0.707107 -0.250000 0.707107
v 0.631989 0.250000 0.631989
v -0.000000 -0.250000 1.000000
v -0.000000 0.250000 0.893767
v -0.707107 -0.250000 0.707107
v -0.631989 0.250000 0.631989
v -1.000000 -0.250000 -0.000000
v -0.893767 0.250000 -0.000000
v -0.707107 -0.250000 -0.707107
v -0.631989 0.250000 -0.631989
v 0.707107 0.250000 -0.707107
v 0.000000 0.250000 -1.000000
v 1.000000 0.250000 0.000000
v 0.707107 0.250000 0.707107
v -0.000000 0.250000 1.000000
v -0.707107 0.250000 0.707107
v -1.000000 0.250000 -0.000000
v -0.707107 0.250000 -0.707107
v 0.590756 0.174770 -0.590756
v -0.000000 0.174770 -0.835454
v 0.835454 0.174770 0.000000
v 0.590756 0.174770 0.590756
v -0.000000 0.174770 0.835454
v -0.590756 0.174770 0.590755
v -0.835454 0.174770 -0.000000
v -0.590756 0.174770 -0.590755
vt 1.000000 0.500000
vt 1.000000 1.000000
vt 0.875000 1.000000
vt 0.875000 0.500000
vt 0.750000 1.000000
vt 0.750000 0.500000
vt 0.625000 1.000000
vt 0.625000 0.500000
vt 0.500000 1.000000
vt 0.500000 0.500000
vt 0.375000 1.000000
vt 0.375000 0.500000
vt 0.250000 1.000000
vt 0.250000 0.500000
vt 0.401677 0.098323
vt 0.464504 0.250000
vt 0.464504 0.250000
vt 0.401677 0.098323
vt 0.125000 1.000000
vt 0.125000 0.500000
vt 0.000000 1.000000
vt 0.000000 0.500000
vt 0.750000 0.490000
vt 0.919706 0.419706
vt 0.990000 0.250000
vt 0.919706 0.080294
vt 0.750000 0.010000
vt 0.580294 0.080294
vt 0.510000 0.250000
vt 0.580294 0.419706
vt 0.250000 0.464504
vt 0.401677 0.401677
vt 0.419706 0.419706
vt 0.250000 0.490000
vt 0.490000 0.250000
vt 0.419706 0.080294
vt 0.250000 0.035496
vt 0.250000 0.010000
vt 0.098323 0.098323
vt 0.080294 0.080294
vt 0.035496 0.250000
vt 0.010000 0.250000
vt 0.098323 0.401677
vt 0.080294 0.419706
vt 0.401677 0.401677
vt 0.250000 0.464504
vt 0.098323 0.401677
vt 0.035496 0.250000
vt 0.098323 0.098323
vt 0.250000 0.035496
vn 0.3827 0.0000 -0.9239
vn 0.9239 0.0000 -0.3827
vn 0.9239 0.0000 0.3827
vn 0.3827 0.0000 0.9239
vn -0.3827 0.0000 0.9239
vn -0.9239 0.0000 0.3827
vn -0.7511 0.5822 -0.3111
vn -0.9239 0.0000 -0.3827
vn -0.3827 0.0000 -0.9239
vn 0.0000 -1.0000 0.0000
vn 0.0000 1.0000 0.0000
vn -0.3111 0.5822 0.7511
vn 0.3111 0.5822 0.7511
vn 0.7511 0.5822 -0.3111
vn -0.3111 0.5822 -0.7511
vn -0.7511 0.5822 0.3111
vn 0.7511 0.5822 0.3111
vn 0.3111 0.5822 -0.7511
usemtl None
s off
f 1/1/1 18/2/1 17/3/1 3/4/1
f 3/4/2 17/3/2 19/5/2 5/6/2
f 5/6/3 19/5/3 20/7/3 7/8/3
f 7/8/4 20/7/4 21/9/4 9/10/4
f 9/10/5 21/9/5 22/11/5 11/12/5
f 11/12/6 22/11/6 23/13/6 13/14/6
f 8/15/7 6/16/7 27/17/7 28/18/7
f 13/14/8 23/13/8 24/19/8 15/20/8
f 15/20/9 24/19/9 18/21/9 1/22/9
f 1/23/10 3/24/10 5/25/10 7/26/10 9/27/10 11/28/10 13/29/10 15/30/10
f 2/31/11 4/32/11 17/33/11 18/34/11
f 4/32/11 6/16/11 19/35/11 17/33/11
f 6/16/11 8/15/11 20/36/11 19/35/11
f 8/15/11 10/37/11 21/38/11 20/36/11
f 10/37/11 12/39/11 22/40/11 21/38/11
f 12/39/11 14/41/11 23/42/11 22/40/11
f 14/41/11 16/43/11 24/44/11 23/42/11
f 16/43/11 2/31/11 18/34/11 24/44/11
f 25/45/11 26/46/11 32/47/11 31/48/11 30/49/11 29/50/11 28/18/11 27/17/11
f 4/32/12 2/31/12 26/46/12 25/45/12
f 2/31/13 16/43/13 32/47/13 26/46/13
f 14/41/14 12/39/14 30/49/14 31/48/14
f 10/37/15 8/15/15 28/18/15 29/50/15
f 6/16/16 4/32/16 25/45/16 27/17/16
f 16/43/17 14/41/17 31/48/17 32/47/17
f 12/39/18 10/37/18 29/50/18 30/49/18
