# Blender v2.83.0 OBJ File: 'board_default_v2__.blend'
# www.blender.org
mtllib ploca_druga_varijanta.mtl
o Cube.003_Cube.005
v -1.000000 -0.100000 1.000000
v -0.850527 1.000000 0.850527
v -1.000000 -0.100000 -1.000000
v -0.850527 1.000000 -0.850527
v 0.850527 1.000000 0.850527
v 0.850527 1.000000 -0.850527
v -1.000000 1.000000 1.000000
v -1.000000 1.000000 -1.000000
v 1.000000 1.000000 1.000000
v -0.850527 0.964387 0.850527
v -0.850527 0.964387 -0.850527
v 0.850527 0.964387 -0.850527
v 0.850527 0.964387 0.850527
v 1.000000 -0.100000 1.000000
v 1.149473 1.000000 0.850527
v 1.149473 1.000000 -0.850527
v 2.850527 1.000000 0.850527
v 2.850527 1.000000 -0.850527
v 1.149473 0.964387 0.850527
v 1.149473 0.964387 -0.850527
v 2.850527 0.964387 -0.850527
v 2.850527 0.964387 0.850527
v 3.000000 -0.100000 1.000000
v 3.149473 1.000000 0.850527
v 3.000000 -0.100000 -1.000000
v 3.149473 1.000000 -0.850527
v 5.000000 -0.100000 1.000000
v 4.850527 1.000000 0.850527
v 4.850527 1.000000 -0.850527
v 3.000000 1.000000 1.000000
v 3.000000 1.000000 -1.000000
v 5.000000 1.000000 1.000000
v 3.149473 0.964387 0.850527
v 3.149473 0.964387 -0.850527
v 4.850527 0.964387 -0.850527
v 4.850527 0.964387 0.850527
v 5.149473 1.000000 0.850527
v 5.000000 -0.100000 -1.000000
v 5.149473 1.000000 -0.850527
v 7.000000 -0.100000 1.000000
v 6.850527 1.000000 0.850527
v 7.000000 -0.100000 -1.000000
v 6.850527 1.000000 -0.850527
v 5.000000 1.000000 -1.000000
v 7.000000 1.000000 1.000000
v 5.149473 0.964387 0.850527
v 5.149473 0.964387 -0.850527
v 6.850527 0.964387 -0.850527
v 6.850527 0.964387 0.850527
v 11.000000 -0.100000 1.000000
v 11.149473 1.000000 0.850527
v 11.149473 1.000000 -0.850527
v 12.850527 1.000000 0.850527
v 12.850527 1.000000 -0.850527
v 11.000000 1.000000 1.000000
v 13.000000 1.000000 1.000000
v 11.149473 0.964387 0.850527
v 11.149473 0.964387 -0.850527
v 12.850527 0.964387 -0.850527
v 12.850527 0.964387 0.850527
v 13.000000 -0.100000 1.000000
v 13.149473 1.000000 0.850527
v 13.149473 1.000000 -0.850527
v 15.000000 -0.100000 1.000000
v 14.850527 1.000000 0.850527
v 15.000000 -0.100000 -1.000000
v 14.850527 1.000000 -0.850527
v 13.000000 1.000000 -1.000000
v 15.000000 1.000000 -1.000000
v 15.000000 1.000000 1.000000
v 13.149473 0.964387 0.850527
v 13.149473 0.964387 -0.850527
v 14.850527 0.964387 -0.850527
v 14.850527 0.964387 0.850527
v -0.850527 1.000000 -1.149473
v -1.000000 -0.100000 -3.000000
v -0.850527 1.000000 -2.850527
v 0.850527 1.000000 -1.149473
v 0.850527 1.000000 -2.850527
v -1.000000 1.000000 -3.000000
v 1.000000 1.000000 -1.000000
v -0.850527 0.964387 -1.149473
v -0.850527 0.964387 -2.850527
v 0.850527 0.964387 -2.850527
v 0.850527 0.964387 -1.149473
v 1.000000 -0.100000 -1.000000
v 1.149473 1.000000 -1.149473
v 1.149473 1.000000 -2.850527
v 2.850527 1.000000 -1.149473
v 2.850527 1.000000 -2.850527
v 1.000000 1.000000 -3.000000
v 1.149473 0.964387 -1.149473
v 1.149473 0.964387 -2.850527
v 2.850527 0.964387 -2.850527
v 2.850527 0.964387 -1.149473
v 3.149473 1.000000 -1.149473
v 3.000000 -0.100000 -3.000000
v 3.149473 1.000000 -2.850527
v 4.850527 1.000000 -1.149473
v 4.850527 1.000000 -2.850527
v 3.000000 1.000000 -3.000000
v 5.000000 1.000000 -3.000000
v 3.149473 0.964387 -1.149473
v 3.149473 0.964387 -2.850527
v 4.850527 0.964387 -2.850527
v 4.850527 0.964387 -1.149473
v 5.149473 1.000000 -1.149473
v 5.149473 1.000000 -2.850527
v 6.850527 1.000000 -1.149473
v 7.000000 -0.100000 -3.000000
v 6.850527 1.000000 -2.850527
v 7.000000 1.000000 -1.000000
v 5.149473 0.964387 -1.149473
v 5.149473 0.964387 -2.850527
v 6.850527 0.964387 -2.850527
v 6.850527 0.964387 -1.149473
v 7.149473 1.000000 -1.149473
v 7.149473 1.000000 -2.850527
v 8.850527 1.000000 -1.149473
v 9.000000 -0.100000 -3.000000
v 8.850527 1.000000 -2.850527
v 9.000000 1.000000 -3.000000
v 9.000000 1.000000 -1.000000
v 7.149473 0.964387 -1.149473
v 7.149473 0.964387 -2.850527
v 8.850527 0.964387 -2.850527
v 8.850527 0.964387 -1.149473
v 9.000000 -0.100000 -1.000000
v 9.149473 1.000000 -1.149473
v 9.149473 1.000000 -2.850527
v 11.000000 -0.100000 -1.000000
v 10.850527 1.000000 -1.149473
v 11.000000 -0.100000 -3.000000
v 10.850527 1.000000 -2.850527
v 11.000000 1.000000 -3.000000
v 11.000000 1.000000 -1.000000
v 9.149473 0.964387 -1.149473
v 9.149473 0.964387 -2.850527
v 10.850527 0.964387 -2.850527
v 10.850527 0.964387 -1.149473
v 11.149473 1.000000 -1.149473
v 11.149473 1.000000 -2.850527
v 12.850527 1.000000 -1.149473
v 13.000000 -0.100000 -3.000000
v 12.850527 1.000000 -2.850527
v 11.149473 0.964387 -1.149473
v 11.149473 0.964387 -2.850527
v 12.850527 0.964387 -2.850527
v 12.850527 0.964387 -1.149473
v 13.000000 -0.100000 -1.000000
v 13.149473 1.000000 -1.149473
v 13.149473 1.000000 -2.850527
v 14.850527 1.000000 -1.149473
v 15.000000 -0.100000 -3.000000
v 14.850527 1.000000 -2.850527
v 13.000000 1.000000 -3.000000
v 13.149473 0.964387 -1.149473
v 13.149473 0.964387 -2.850527
v 14.850527 0.964387 -2.850527
v 14.850527 0.964387 -1.149473
v -0.850527 1.000000 -3.149473
v -1.000000 -0.100000 -5.000000
v -0.850527 1.000000 -4.850527
v 1.000000 -0.100000 -3.000000
v 0.850527 1.000000 -3.149473
v 0.850527 1.000000 -4.850527
v -1.000000 1.000000 -5.000000
v 1.000000 1.000000 -5.000000
v -0.850527 0.964387 -3.149473
v -0.850527 0.964387 -4.850527
v 0.850527 0.964387 -4.850527
v 0.850527 0.964387 -3.149473
v 1.149473 1.000000 -3.149473
v 1.000000 -0.100000 -5.000000
v 1.149473 1.000000 -4.850527
v 2.850527 1.000000 -3.149473
v 3.000000 -0.100000 -5.000000
v 2.850527 1.000000 -4.850527
v 3.000000 1.000000 -5.000000
v 1.149473 0.964387 -3.149473
v 1.149473 0.964387 -4.850527
v 2.850527 0.964387 -4.850527
v 2.850527 0.964387 -3.149473
v 3.149473 1.000000 -3.149473
v 3.149473 1.000000 -4.850527
v 5.000000 -0.100000 -3.000000
v 4.850527 1.000000 -3.149473
v 5.000000 -0.100000 -5.000000
v 4.850527 1.000000 -4.850527
v 3.149473 0.964387 -3.149473
v 3.149473 0.964387 -4.850527
v 4.850527 0.964387 -4.850527
v 4.850527 0.964387 -3.149473
v 5.149473 1.000000 -3.149473
v 5.149473 1.000000 -4.850527
v 6.850527 1.000000 -3.149473
v 7.000000 -0.100000 -5.000000
v 6.850527 1.000000 -4.850527
v 5.000000 1.000000 -5.000000
v 7.000000 1.000000 -5.000000
v 7.000000 1.000000 -3.000000
v 5.149473 0.964387 -3.149473
v 5.149473 0.964387 -4.850527
v 6.850527 0.964387 -4.850527
v 6.850527 0.964387 -3.149473
v 11.149473 1.000000 -3.149473
v 11.000000 -0.100000 -5.000000
v 11.149473 1.000000 -4.850527
v 12.850527 1.000000 -3.149473
v 12.850527 1.000000 -4.850527
v 11.000000 1.000000 -5.000000
v 11.149473 0.964387 -3.149473
v 11.149473 0.964387 -4.850527
v 12.850527 0.964387 -4.850527
v 12.850527 0.964387 -3.149473
v 13.149473 1.000000 -3.149473
v 13.000000 -0.100000 -5.000000
v 13.149473 1.000000 -4.850527
v 14.850527 1.000000 -3.149473
v 15.000000 -0.100000 -5.000000
v 14.850527 1.000000 -4.850527
v 13.000000 1.000000 -5.000000
v 15.000000 1.000000 -5.000000
v 15.000000 1.000000 -3.000000
v 13.149473 0.964387 -3.149473
v 13.149473 0.964387 -4.850527
v 14.850527 0.964387 -4.850527
v 14.850527 0.964387 -3.149473
vt 0.158175 0.995051
vt 0.155086 0.936048
vt 0.262377 0.930440
vt 0.265453 0.989435
vt 0.096256 0.829169
vt 0.155070 0.829147
vt 0.096286 0.936065
vt 0.844228 0.024902
vt 0.844228 0.086877
vt 0.782253 0.086877
vt 0.782253 0.024902
vt 0.255259 0.923185
vt 0.162608 0.928611
vt 0.164324 0.926165
vt 0.252926 0.921550
vt 0.254825 0.830968
vt 0.262340 0.823519
vt 0.162181 0.836399
vt 0.253119 0.833424
vt 0.164507 0.838024
vt 0.096182 0.722225
vt 0.155012 0.722190
vt 0.844228 0.148853
vt 0.782253 0.148853
vt 0.255218 0.816263
vt 0.162582 0.821703
vt 0.164298 0.819252
vt 0.252887 0.814630
vt 0.254771 0.724026
vt 0.262288 0.716580
vt 0.162125 0.729450
vt 0.253065 0.726481
vt 0.164451 0.731080
vt 0.096109 0.615238
vt 0.154955 0.615209
vt 0.844228 0.210828
vt 0.782253 0.210828
vt 0.255165 0.709325
vt 0.162524 0.714746
vt 0.164241 0.712292
vt 0.252833 0.707697
vt 0.254724 0.617076
vt 0.262245 0.609636
vt 0.162069 0.622475
vt 0.253016 0.619526
vt 0.164397 0.624108
vt 0.096014 0.401194
vt 0.154876 0.401168
vt 0.154923 0.508190
vt 0.096061 0.508216
vt 0.844228 0.272803
vt 0.782253 0.272803
vt 0.255124 0.602378
vt 0.162468 0.607763
vt 0.164183 0.605306
vt 0.252794 0.600753
vt 0.254717 0.510119
vt 0.262240 0.502687
vt 0.162042 0.515464
vt 0.253004 0.512562
vt 0.164372 0.517102
vt 0.096279 0.294413
vt 0.155077 0.294423
vt 0.155060 0.401329
vt 0.096262 0.401320
vt 0.096296 0.187513
vt 0.155101 0.187522
vt 0.844228 0.396753
vt 0.844228 0.458728
vt 0.782253 0.458728
vt 0.782253 0.396753
vt 0.255215 0.281618
vt 0.162594 0.286987
vt 0.164306 0.284539
vt 0.252888 0.279983
vt 0.262323 0.288878
vt 0.254829 0.189416
vt 0.262346 0.181976
vt 0.162210 0.194779
vt 0.253118 0.191869
vt 0.164537 0.196409
vt 0.259305 0.016076
vt 0.262350 0.075063
vt 0.155111 0.080582
vt 0.152073 0.021602
vt 0.096298 0.080581
vt 0.844228 0.520703
vt 0.782253 0.520703
vt 0.255233 0.174714
vt 0.162613 0.180082
vt 0.164327 0.177629
vt 0.252905 0.173082
vt 0.254838 0.082497
vt 0.162220 0.087847
vt 0.253127 0.084948
vt 0.164545 0.089480
vt 0.369632 0.924865
vt 0.372691 0.983851
vt 0.906203 0.024902
vt 0.906203 0.086877
vt 0.362518 0.917606
vt 0.269892 0.923006
vt 0.271602 0.920559
vt 0.360190 0.915970
vt 0.362076 0.825381
vt 0.369586 0.817935
vt 0.269458 0.830778
vt 0.360364 0.827835
vt 0.271789 0.832405
vt 0.906203 0.148853
vt 0.362470 0.810673
vt 0.269854 0.816077
vt 0.271564 0.813627
vt 0.360142 0.809037
vt 0.362020 0.718448
vt 0.369532 0.711005
vt 0.269406 0.723842
vt 0.360308 0.720901
vt 0.271736 0.725473
vt 0.906203 0.210828
vt 0.362415 0.703745
vt 0.269802 0.709135
vt 0.271514 0.706681
vt 0.360086 0.702115
vt 0.361974 0.611517
vt 0.369489 0.604079
vt 0.269361 0.616901
vt 0.360263 0.613965
vt 0.271689 0.618538
vt 0.906203 0.272803
vt 0.362374 0.596821
vt 0.269758 0.602189
vt 0.271471 0.599731
vt 0.360044 0.595197
vt 0.361970 0.504604
vt 0.369488 0.497176
vt 0.269352 0.509955
vt 0.360257 0.507045
vt 0.271679 0.511596
vt 0.428293 0.497195
vt 0.369531 0.390255
vt 0.428327 0.390279
vt 0.203485 0.395776
vt 0.262281 0.395799
vt 0.203447 0.502667
vt 0.906203 0.334778
vt 0.844228 0.334778
vt 0.362381 0.489911
vt 0.269758 0.495253
vt 0.271470 0.492806
vt 0.360054 0.488277
vt 0.362013 0.397692
vt 0.269389 0.403054
vt 0.360301 0.400146
vt 0.271715 0.404684
vt 0.369573 0.283367
vt 0.428366 0.283388
vt 0.203519 0.288859
vt 0.906203 0.396753
vt 0.362423 0.383000
vt 0.269799 0.388362
vt 0.271511 0.385908
vt 0.360097 0.381370
vt 0.362055 0.290801
vt 0.269431 0.296143
vt 0.360343 0.293248
vt 0.271758 0.297777
vt 0.906203 0.458728
vt 0.362462 0.276104
vt 0.269840 0.281446
vt 0.271553 0.278998
vt 0.360135 0.274467
vt 0.362078 0.183881
vt 0.369592 0.176438
vt 0.269458 0.189237
vt 0.360366 0.186334
vt 0.271786 0.190867
vt 0.366551 0.010523
vt 0.369607 0.069520
vt 0.906203 0.520703
vt 0.362479 0.169174
vt 0.269860 0.174536
vt 0.271572 0.172086
vt 0.360151 0.167542
vt 0.362090 0.076955
vt 0.269461 0.082320
vt 0.360378 0.079406
vt 0.271788 0.083953
vt 0.476875 0.919323
vt 0.479925 0.978306
vt 0.535713 0.919300
vt 0.476845 0.812349
vt 0.535670 0.812321
vt 0.968178 0.024902
vt 0.968178 0.086877
vt 0.469764 0.912055
vt 0.377141 0.917430
vt 0.378848 0.914982
vt 0.467440 0.910418
vt 0.469334 0.819794
vt 0.376707 0.825193
vt 0.467619 0.822251
vt 0.379038 0.826821
vt 0.476785 0.705398
vt 0.535599 0.705363
vt 0.968178 0.148853
vt 0.469732 0.805087
vt 0.377103 0.810494
vt 0.378810 0.808044
vt 0.467406 0.803455
vt 0.469275 0.712840
vt 0.376654 0.718260
vt 0.467559 0.715293
vt 0.378986 0.719889
vt 0.476728 0.598471
vt 0.535525 0.598448
vt 0.968178 0.210828
vt 0.469674 0.698140
vt 0.377049 0.703559
vt 0.378754 0.701104
vt 0.467348 0.696511
vt 0.469219 0.605911
vt 0.376608 0.611336
vt 0.467504 0.608360
vt 0.378938 0.612970
vt 0.476709 0.491603
vt 0.535491 0.491584
vt 0.476675 0.384727
vt 0.535456 0.384709
vt 0.968178 0.272803
vt 0.469619 0.591220
vt 0.377004 0.596630
vt 0.378711 0.594170
vt 0.467292 0.589594
vt 0.469196 0.499037
vt 0.376596 0.504437
vt 0.467486 0.501481
vt 0.378922 0.506078
vt 0.535691 0.384837
vt 0.476857 0.384837
vt 0.476858 0.277867
vt 0.535691 0.277867
vt 0.476867 0.170885
vt 0.535692 0.170896
vt 0.968178 0.396753
vt 0.968178 0.458728
vt 0.469744 0.270598
vt 0.377093 0.275934
vt 0.378806 0.273486
vt 0.467415 0.268962
vt 0.469352 0.178328
vt 0.376708 0.183698
vt 0.467638 0.180782
vt 0.379036 0.185329
vt 0.476898 0.063954
vt 0.535713 0.063966
vt 0.473832 0.004949
vt 0.968178 0.520703
vt 0.469757 0.163626
vt 0.377112 0.168998
vt 0.378823 0.166546
vt 0.467429 0.161995
vt 0.469375 0.071392
vt 0.376720 0.076777
vt 0.467660 0.073842
vt 0.379050 0.078409
vn -1.0000 0.0000 0.0000
vn 0.0000 0.0000 1.0000
vn 0.0000 -1.0000 0.0000
vn 1.0000 0.0000 0.0000
vn 0.0000 1.0000 0.0000
vn 0.0000 0.0000 -1.0000
usemtl Material.003
s 1
f 1/1/1 7/2/1 8/3/1 3/4/1
f 14/5/2 9/6/2 7/2/2 1/7/2
f 3/8/3 86/9/3 14/10/3 1/11/3
f 4/12/4 2/13/4 10/14/4 11/15/4
f 2/13/5 4/12/5 8/3/5 7/2/5
f 4/12/5 6/16/5 81/17/5 8/3/5
f 6/16/5 5/18/5 9/6/5 81/17/5
f 5/18/5 2/13/5 7/2/5 9/6/5
f 12/19/5 11/15/5 10/14/5 13/20/5
f 2/13/6 5/18/6 13/20/6 10/14/6
f 6/16/2 4/12/2 11/15/2 12/19/2
f 5/18/1 6/16/1 12/19/1 13/20/1
f 23/21/2 30/22/2 9/6/2 14/5/2
f 86/9/3 25/23/3 23/24/3 14/10/3
f 16/25/4 15/26/4 19/27/4 20/28/4
f 15/26/5 16/25/5 81/17/5 9/6/5
f 16/25/5 18/29/5 31/30/5 81/17/5
f 18/29/5 17/31/5 30/22/5 31/30/5
f 17/31/5 15/26/5 9/6/5 30/22/5
f 21/32/5 20/28/5 19/27/5 22/33/5
f 15/26/6 17/31/6 22/33/6 19/27/6
f 18/29/2 16/25/2 20/28/2 21/32/2
f 17/31/1 18/29/1 21/32/1 22/33/1
f 27/34/2 32/35/2 30/22/2 23/21/2
f 25/23/3 38/36/3 27/37/3 23/24/3
f 26/38/4 24/39/4 33/40/4 34/41/4
f 24/39/5 26/38/5 31/30/5 30/22/5
f 26/38/5 29/42/5 44/43/5 31/30/5
f 29/42/5 28/44/5 32/35/5 44/43/5
f 28/44/5 24/39/5 30/22/5 32/35/5
f 35/45/5 34/41/5 33/40/5 36/46/5
f 24/39/6 28/44/6 36/46/6 33/40/6
f 29/42/2 26/38/2 34/41/2 35/45/2
f 28/44/1 29/42/1 35/45/1 36/46/1
f 42/47/4 112/48/4 45/49/4 40/50/4
f 40/50/2 45/49/2 32/35/2 27/34/2
f 38/36/3 42/51/3 40/52/3 27/37/3
f 39/53/4 37/54/4 46/55/4 47/56/4
f 37/54/5 39/53/5 44/43/5 32/35/5
f 39/53/5 43/57/5 112/58/5 44/43/5
f 43/57/5 41/59/5 45/49/5 112/58/5
f 41/59/5 37/54/5 32/35/5 45/49/5
f 48/60/5 47/56/5 46/55/5 49/61/5
f 37/54/6 41/59/6 49/61/6 46/55/6
f 43/57/2 39/53/2 47/56/2 48/60/2
f 41/59/1 43/57/1 48/60/1 49/61/1
f 50/62/1 55/63/1 136/64/1 131/65/1
f 61/66/2 56/67/2 55/63/2 50/62/2
f 131/68/3 150/69/3 61/70/3 50/71/3
f 52/72/4 51/73/4 57/74/4 58/75/4
f 51/73/5 52/72/5 136/76/5 55/63/5
f 52/72/5 54/77/5 68/78/5 136/76/5
f 54/77/5 53/79/5 56/67/5 68/78/5
f 53/79/5 51/73/5 55/63/5 56/67/5
f 59/80/5 58/75/5 57/74/5 60/81/5
f 51/73/6 53/79/6 60/81/6 57/74/6
f 54/77/2 52/72/2 58/75/2 59/80/2
f 53/79/1 54/77/1 59/80/1 60/81/1
f 66/82/4 69/83/4 70/84/4 64/85/4
f 64/86/2 70/84/2 56/67/2 61/66/2
f 150/69/3 66/87/3 64/88/3 61/70/3
f 63/89/4 62/90/4 71/91/4 72/92/4
f 62/90/5 63/89/5 68/78/5 56/67/5
f 63/89/5 67/93/5 69/83/5 68/78/5
f 67/93/5 65/94/5 70/84/5 69/83/5
f 65/94/5 62/90/5 56/67/5 70/84/5
f 73/95/5 72/92/5 71/91/5 74/96/5
f 62/90/6 65/94/6 74/96/6 71/91/6
f 67/93/2 63/89/2 72/92/2 73/95/2
f 65/94/1 67/93/1 73/95/1 74/96/1
f 3/4/1 8/3/1 80/97/1 76/98/1
f 76/99/3 164/100/3 86/9/3 3/8/3
f 77/101/4 75/102/4 82/103/4 83/104/4
f 75/102/5 77/101/5 80/97/5 8/3/5
f 77/101/5 79/105/5 91/106/5 80/97/5
f 79/105/5 78/107/5 81/17/5 91/106/5
f 78/107/5 75/102/5 8/3/5 81/17/5
f 84/108/5 83/104/5 82/103/5 85/109/5
f 75/102/6 78/107/6 85/109/6 82/103/6
f 79/105/2 77/101/2 83/104/2 84/108/2
f 78/107/1 79/105/1 84/108/1 85/109/1
f 164/100/3 97/110/3 25/23/3 86/9/3
f 88/111/4 87/112/4 92/113/4 93/114/4
f 87/112/5 88/111/5 91/106/5 81/17/5
f 88/111/5 90/115/5 101/116/5 91/106/5
f 90/115/5 89/117/5 31/30/5 101/116/5
f 89/117/5 87/112/5 81/17/5 31/30/5
f 94/118/5 93/114/5 92/113/5 95/119/5
f 87/112/6 89/117/6 95/119/6 92/113/6
f 90/115/2 88/111/2 93/114/2 94/118/2
f 89/117/1 90/115/1 94/118/1 95/119/1
f 97/110/3 186/120/3 38/36/3 25/23/3
f 98/121/4 96/122/4 103/123/4 104/124/4
f 96/122/5 98/121/5 101/116/5 31/30/5
f 98/121/5 100/125/5 102/126/5 101/116/5
f 100/125/5 99/127/5 44/43/5 102/126/5
f 99/127/5 96/122/5 31/30/5 44/43/5
f 105/128/5 104/124/5 103/123/5 106/129/5
f 96/122/6 99/127/6 106/129/6 103/123/6
f 100/125/2 98/121/2 104/124/2 105/128/2
f 99/127/1 100/125/1 105/128/1 106/129/1
f 186/120/3 110/130/3 42/51/3 38/36/3
f 108/131/4 107/132/4 113/133/4 114/134/4
f 107/132/5 108/131/5 102/126/5 44/43/5
f 108/131/5 111/135/5 201/136/5 102/126/5
f 111/135/5 109/137/5 112/58/5 201/136/5
f 109/137/5 107/132/5 44/43/5 112/58/5
f 115/138/5 114/134/5 113/133/5 116/139/5
f 107/132/6 109/137/6 116/139/6 113/133/6
f 111/135/2 108/131/2 114/134/2 115/138/2
f 109/137/1 111/135/1 115/138/1 116/139/1
f 110/140/6 201/136/6 122/141/6 120/142/6
f 128/143/2 123/144/2 112/58/2 42/145/2
f 110/130/3 120/146/3 128/147/3 42/51/3
f 118/148/4 117/149/4 124/150/4 125/151/4
f 117/149/5 118/148/5 201/136/5 112/58/5
f 118/148/5 121/152/5 122/141/5 201/136/5
f 121/152/5 119/153/5 123/144/5 122/141/5
f 119/153/5 117/149/5 112/58/5 123/144/5
f 126/154/5 125/151/5 124/150/5 127/155/5
f 117/149/6 119/153/6 127/155/6 124/150/6
f 121/152/2 118/148/2 125/151/2 126/154/2
f 119/153/1 121/152/1 126/154/1 127/155/1
f 120/142/6 122/141/6 135/156/6 133/157/6
f 131/158/2 136/76/2 123/144/2 128/143/2
f 120/146/3 133/159/3 131/68/3 128/147/3
f 130/160/4 129/161/4 137/162/4 138/163/4
f 129/161/5 130/160/5 122/141/5 123/144/5
f 130/160/5 134/164/5 135/156/5 122/141/5
f 134/164/5 132/165/5 136/76/5 135/156/5
f 132/165/5 129/161/5 123/144/5 136/76/5
f 139/166/5 138/163/5 137/162/5 140/167/5
f 129/161/6 132/165/6 140/167/6 137/162/6
f 134/164/2 130/160/2 138/163/2 139/166/2
f 132/165/1 134/164/1 139/166/1 140/167/1
f 133/159/3 144/168/3 150/69/3 131/68/3
f 142/169/4 141/170/4 146/171/4 147/172/4
f 141/170/5 142/169/5 135/156/5 136/76/5
f 142/169/5 145/173/5 156/174/5 135/156/5
f 145/173/5 143/175/5 68/78/5 156/174/5
f 143/175/5 141/170/5 136/76/5 68/78/5
f 148/176/5 147/172/5 146/171/5 149/177/5
f 141/170/6 143/175/6 149/177/6 146/171/6
f 145/173/2 142/169/2 147/172/2 148/176/2
f 143/175/1 145/173/1 148/176/1 149/177/1
f 154/178/4 224/179/4 69/83/4 66/82/4
f 144/168/3 154/180/3 66/87/3 150/69/3
f 152/181/4 151/182/4 157/183/4 158/184/4
f 151/182/5 152/181/5 156/174/5 68/78/5
f 152/181/5 155/185/5 224/179/5 156/174/5
f 155/185/5 153/186/5 69/83/5 224/179/5
f 153/186/5 151/182/5 68/78/5 69/83/5
f 159/187/5 158/184/5 157/183/5 160/188/5
f 151/182/6 153/186/6 160/188/6 157/183/6
f 155/185/2 152/181/2 158/184/2 159/187/2
f 153/186/1 155/185/1 159/187/1 160/188/1
f 76/98/1 80/97/1 167/189/1 162/190/1
f 162/191/6 167/189/6 168/192/6 174/193/6
f 162/194/3 174/195/3 164/100/3 76/99/3
f 163/196/4 161/197/4 169/198/4 170/199/4
f 161/197/5 163/196/5 167/189/5 80/97/5
f 163/196/5 166/200/5 168/192/5 167/189/5
f 166/200/5 165/201/5 91/106/5 168/192/5
f 165/201/5 161/197/5 80/97/5 91/106/5
f 171/202/5 170/199/5 169/198/5 172/203/5
f 161/197/6 165/201/6 172/203/6 169/198/6
f 166/200/2 163/196/2 170/199/2 171/202/2
f 165/201/1 166/200/1 171/202/1 172/203/1
f 174/193/6 168/192/6 179/204/6 177/205/6
f 174/195/3 177/206/3 97/110/3 164/100/3
f 175/207/4 173/208/4 180/209/4 181/210/4
f 173/208/5 175/207/5 168/192/5 91/106/5
f 175/207/5 178/211/5 179/204/5 168/192/5
f 178/211/5 176/212/5 101/116/5 179/204/5
f 176/212/5 173/208/5 91/106/5 101/116/5
f 182/213/5 181/210/5 180/209/5 183/214/5
f 173/208/6 176/212/6 183/214/6 180/209/6
f 178/211/2 175/207/2 181/210/2 182/213/2
f 176/212/1 178/211/1 182/213/1 183/214/1
f 177/205/6 179/204/6 199/215/6 188/216/6
f 177/206/3 188/217/3 186/120/3 97/110/3
f 185/218/4 184/219/4 190/220/4 191/221/4
f 184/219/5 185/218/5 179/204/5 101/116/5
f 185/218/5 189/222/5 199/215/5 179/204/5
f 189/222/5 187/223/5 102/126/5 199/215/5
f 187/223/5 184/219/5 101/116/5 102/126/5
f 192/224/5 191/221/5 190/220/5 193/225/5
f 184/219/6 187/223/6 193/225/6 190/220/6
f 189/222/2 185/218/2 191/221/2 192/224/2
f 187/223/1 189/222/1 192/224/1 193/225/1
f 188/216/6 199/215/6 200/226/6 197/227/6
f 197/227/4 200/226/4 201/228/4 110/229/4
f 188/217/3 197/230/3 110/130/3 186/120/3
f 195/231/4 194/232/4 202/233/4 203/234/4
f 194/232/5 195/231/5 199/215/5 102/126/5
f 195/231/5 198/235/5 200/226/5 199/215/5
f 198/235/5 196/236/5 201/136/5 200/226/5
f 196/236/5 194/232/5 102/126/5 201/136/5
f 204/237/5 203/234/5 202/233/5 205/238/5
f 194/232/6 196/236/6 205/238/6 202/233/6
f 198/235/2 195/231/2 203/234/2 204/237/2
f 196/236/1 198/235/1 204/237/1 205/238/1
f 133/239/1 135/240/1 211/241/1 207/242/1
f 207/242/6 211/241/6 222/243/6 217/244/6
f 207/245/3 217/246/3 144/168/3 133/159/3
f 208/247/4 206/248/4 212/249/4 213/250/4
f 206/248/5 208/247/5 211/241/5 135/156/5
f 208/247/5 210/251/5 222/243/5 211/241/5
f 210/251/5 209/252/5 156/174/5 222/243/5
f 209/252/5 206/248/5 135/156/5 156/174/5
f 214/253/5 213/250/5 212/249/5 215/254/5
f 206/248/6 209/252/6 215/254/6 212/249/6
f 210/251/2 208/247/2 213/250/2 214/253/2
f 209/252/1 210/251/1 214/253/1 215/254/1
f 217/244/6 222/243/6 223/255/6 220/256/6
f 220/257/4 223/255/4 224/179/4 154/178/4
f 217/246/3 220/258/3 154/180/3 144/168/3
f 218/259/4 216/260/4 225/261/4 226/262/4
f 216/260/5 218/259/5 222/243/5 156/174/5
f 218/259/5 221/263/5 223/255/5 222/243/5
f 221/263/5 219/264/5 224/179/5 223/255/5
f 219/264/5 216/260/5 156/174/5 224/179/5
f 227/265/5 226/262/5 225/261/5 228/266/5
f 216/260/6 219/264/6 228/266/6 225/261/6
f 221/263/2 218/259/2 226/262/2 227/265/2
f 219/264/1 221/263/1 227/265/1 228/266/1
